<?xml version="1.0" encoding="UTF-8"?>
<svg xmlns="http://www.w3.org/2000/svg" xmlns:xlink="http://www.w3.org/1999/xlink" viewBox="0 0 24 24" width="24px" height="24px">
<g id="surface20464873">
<path style=" stroke:none;fill-rule:nonzero;fill:rgb(100%,100%,100%);fill-opacity:1;" d="M 12 2 C 6.476562 2 2 6.476562 2 12 C 2 17.523438 6.476562 22 12 22 C 17.523438 22 22 17.523438 22 12 C 22 6.476562 17.523438 2 12 2 Z M 10 16 C 7.789062 16 6 14.210938 6 12 C 6 9.789062 7.789062 8 10 8 C 11.042969 8 11.980469 8.40625 12.695312 9.0625 L 11.601562 10.09375 C 11.167969 9.730469 10.613281 9.5 10 9.5 C 8.617188 9.5 7.5 10.617188 7.5 12 C 7.5 13.382812 8.617188 14.5 10 14.5 C 11.210938 14.5 12.21875 13.640625 12.449219 12.5 L 10 12.5 L 10 11 L 13.859375 11 C 13.941406 11.320312 14 11.652344 14 12 C 14 14.210938 12.210938 16 10 16 Z M 18 12 L 18 13.5 L 17 13.5 L 17 12 L 15.5 12 L 15.5 11 L 17 11 L 17 9.5 L 18 9.5 L 18 11 L 19.5 11 L 19.5 12 Z M 18 12 "/>
</g>
</svg>
