<?xml version="1.0" encoding="UTF-8"?>
<svg xmlns="http://www.w3.org/2000/svg" xmlns:xlink="http://www.w3.org/1999/xlink" viewBox="0 0 30 30" width="30px" height="30px">
<g id="surface121156928">
<path style=" stroke:none;fill-rule:nonzero;fill:rgb(100%,100%,100%);fill-opacity:1;" d="M 27.683594 3.929688 C 27.230469 3.550781 26.527344 3.496094 25.792969 3.789062 C 25.023438 4.097656 4.035156 13.097656 3.183594 13.46875 C 3.027344 13.519531 1.667969 14.027344 1.808594 15.15625 C 1.933594 16.171875 3.023438 16.59375 3.160156 16.640625 L 8.496094 18.46875 C 8.847656 19.648438 10.152344 23.996094 10.441406 24.925781 C 10.621094 25.503906 10.914062 26.265625 11.429688 26.421875 C 11.878906 26.59375 12.328125 26.433594 12.621094 26.207031 L 15.882812 23.179688 L 21.148438 27.289062 L 21.273438 27.363281 C 21.632812 27.523438 21.972656 27.601562 22.300781 27.601562 C 22.554688 27.601562 22.796875 27.554688 23.027344 27.460938 C 23.816406 27.136719 24.132812 26.382812 24.164062 26.296875 L 28.097656 5.851562 C 28.339844 4.761719 28.003906 4.203125 27.683594 3.929688 Z M 13.199219 19.199219 L 11.398438 24 L 9.601562 18 L 23.398438 7.800781 Z M 13.199219 19.199219 "/>
</g>
</svg>
